<?xml version="1.0" encoding="UTF-8"?>
<svg version="1.1" xmlns="http://www.w3.org/2000/svg" width="512" height="512">
<path d="M0 0 C1.01790619 0.00215515 2.03581238 0.0043103 3.08456421 0.00653076 C17.69363523 0.05620146 32.02575853 0.30709809 46.375 3.3125 C47.34985352 3.51117676 48.32470703 3.70985352 49.32910156 3.91455078 C97.7109774 14.03517194 141.69928269 35.9516877 177.375 70.3125 C178.3640332 71.26068604 178.3640332 71.26068604 179.37304688 72.22802734 C188.86130305 81.37247479 197.6012044 90.66984009 205.375 101.3125 C206.23306152 102.46355017 207.09113451 103.61459177 207.94921875 104.765625 C213.98736829 112.95680614 219.34595521 121.47054105 224.375 130.3125 C224.73948242 130.94430176 225.10396484 131.57610352 225.47949219 132.22705078 C247.08534998 169.97532572 256.85198095 212.74189997 256.6875 255.9375 C256.68534485 256.95540619 256.6831897 257.97331238 256.68096924 259.02206421 C256.63129854 273.63113523 256.38040191 287.96325853 253.375 302.3125 C253.07698486 303.77478027 253.07698486 303.77478027 252.77294922 305.26660156 C242.65232806 353.6484774 220.7358123 397.63678269 186.375 433.3125 C185.74287598 433.97185547 185.11075195 434.63121094 184.45947266 435.31054688 C175.31502521 444.79880305 166.01765991 453.5387044 155.375 461.3125 C154.22394983 462.17056152 153.07290823 463.02863451 151.921875 463.88671875 C143.73224019 469.92427396 135.22961724 475.30707302 126.375 480.3125 C125.66778809 480.7146875 124.96057617 481.116875 124.23193359 481.53125 C101.09654164 494.5566741 75.92537591 503.30551461 49.9375 508.625 C49.21860596 508.77235596 48.49971191 508.91971191 47.7590332 509.0715332 C33.08339502 511.86090125 18.55831162 512.66142619 3.64770508 512.62817383 C0.70811513 512.6250221 -2.2304558 512.64854926 -5.16992188 512.67382812 C-18.54306192 512.71848737 -31.43916711 511.51301542 -44.625 509.3125 C-46.33055054 509.03031616 -46.33055054 509.03031616 -48.07055664 508.74243164 C-91.33802759 500.97044532 -132.38793216 480.98345309 -165.625 452.3125 C-166.37007813 451.67828125 -167.11515625 451.0440625 -167.8828125 450.390625 C-181.38779833 438.57948485 -194.05918743 425.82889772 -204.625 411.3125 C-205.48149066 410.16255169 -206.33826433 409.01281411 -207.1953125 407.86328125 C-213.23534209 399.67315742 -218.61867614 391.16870382 -223.625 382.3125 C-224.0271875 381.60528809 -224.429375 380.89807617 -224.84375 380.16943359 C-237.8691741 357.03404164 -246.61801461 331.86287591 -251.9375 305.875 C-252.08485596 305.15610596 -252.23221191 304.43721191 -252.3840332 303.6965332 C-255.35789088 288.05024391 -255.99800362 272.57681954 -255.9375 256.6875 C-255.93534485 255.66959381 -255.9331897 254.65168762 -255.93096924 253.60293579 C-255.88129854 238.99386477 -255.63040191 224.66174147 -252.625 210.3125 C-252.42632324 209.33764648 -252.22764648 208.36279297 -252.02294922 207.35839844 C-241.90232806 158.9765226 -219.9858123 114.98821731 -185.625 79.3125 C-184.99287598 78.65314453 -184.36075195 77.99378906 -183.70947266 77.31445312 C-174.56502521 67.82619695 -165.26765991 59.0862956 -154.625 51.3125 C-153.47394983 50.45443848 -152.32290823 49.59636549 -151.171875 48.73828125 C-142.98224019 42.70072604 -134.47961724 37.31792698 -125.625 32.3125 C-124.91778809 31.9103125 -124.21057617 31.508125 -123.48193359 31.09375 C-100.34654164 18.0683259 -75.17537591 9.31948539 -49.1875 4 C-48.46860596 3.85264404 -47.74971191 3.70528809 -47.0090332 3.5534668 C-31.36274391 0.57960912 -15.88931954 -0.06050362 0 0 Z " fill="#656565" transform="translate(255.625,-0.3125)"/>
<path d="M0 0 C0.98774042 -0.00538554 1.97548085 -0.01077108 2.9931528 -0.01631981 C6.270768 -0.03051592 9.54797456 -0.02351628 12.8256073 -0.01637268 C15.18872398 -0.02208065 17.5518379 -0.02904656 19.91494751 -0.03717041 C26.3117663 -0.05507088 32.70844768 -0.05393907 39.10528398 -0.04822803 C43.10710011 -0.04591172 47.10889554 -0.0481333 51.11070824 -0.05270576 C51.77681315 -0.05345419 52.44291806 -0.05420261 53.12920796 -0.05497371 C54.48278486 -0.05650533 55.83636175 -0.05804368 57.18993863 -0.05958868 C69.86052588 -0.07329096 82.53105124 -0.06789238 95.20163705 -0.05640347 C106.76662377 -0.04647663 118.33145038 -0.05940624 129.89641241 -0.08333766 C141.80039549 -0.10778305 153.70430417 -0.11732301 165.60831183 -0.11068493 C172.27982516 -0.10720435 178.95123363 -0.10968675 185.62273598 -0.12693596 C191.89950359 -0.14245705 198.17596674 -0.13839203 204.45272255 -0.11963081 C206.74797001 -0.11595906 209.04324029 -0.11901181 211.33846664 -0.1295166 C233.44781981 -0.22293121 251.07646563 3.46606517 267.58415222 19.38768005 C283.14911806 37.07953564 285.04338634 55.05519819 284.87712097 77.65330505 C284.87151699 79.90059626 284.86725069 82.14789117 284.86425781 84.39518738 C284.85287225 90.27403607 284.82345981 96.15265798 284.79014587 102.03141785 C284.75930867 108.04467197 284.74572344 114.05796319 284.7306366 120.0712738 C284.69858358 131.84350818 284.64746421 143.61557516 284.58415222 155.38768005 C281.82523667 154.28939125 279.0783179 153.17437643 276.34196472 152.02049255 C262.15695755 146.13295194 248.93855451 142.93119872 233.58415222 142.38768005 C233.58415222 152.61768005 233.58415222 162.84768005 233.58415222 173.38768005 C239.52415222 173.38768005 245.46415222 173.38768005 251.58415222 173.38768005 C251.58415222 184.93768005 251.58415222 196.48768005 251.58415222 208.38768005 C256.20415222 208.38768005 260.82415222 208.38768005 265.58415222 208.38768005 C264.18437343 211.18723765 263.05333392 213.25911553 261.22087097 215.6806488 C260.75229675 216.30294373 260.28372253 216.92523865 259.8009491 217.56639099 C259.29628113 218.22929138 258.79161316 218.89219177 258.27165222 219.57518005 C257.74764832 220.26772888 257.22364441 220.96027771 256.6837616 221.67381287 C255.56668899 223.14848091 254.44798857 224.62191705 253.32780457 226.09422302 C251.56054698 228.41872845 249.80055573 230.74860891 248.04118347 233.0790863 C246.88922674 234.59891097 245.73689326 236.11845017 244.58415222 237.63768005 C244.04492126 238.35206238 243.50569031 239.0664447 242.95011902 239.80247498 C242.18115295 240.81144836 242.18115295 240.81144836 241.39665222 241.84080505 C240.91486511 242.47470154 240.433078 243.10859802 239.93669128 243.76170349 C238.58415222 245.38768005 238.58415222 245.38768005 236.25602722 247.23143005 C233.42517519 250.88243548 233.90440678 255.154292 233.83415222 259.63768005 C233.75165222 262.85518005 233.66915222 266.07268005 233.58415222 269.38768005 C243.15415222 269.38768005 252.72415222 269.38768005 262.58415222 269.38768005 C262.58415222 261.46768005 262.58415222 253.54768005 262.58415222 245.38768005 C272.81415222 245.38768005 283.04415222 245.38768005 293.58415222 245.38768005 C293.58415222 263.53768005 293.58415222 281.68768005 293.58415222 300.38768005 C273.78415222 300.38768005 253.98415222 300.38768005 233.58415222 300.38768005 C233.58415222 313.91768005 233.58415222 327.44768005 233.58415222 341.38768005 C209.27203658 341.38768005 186.93446227 333.48388628 168.58415222 317.38768005 C167.8390741 316.78568787 167.09399597 316.18369568 166.32633972 315.5634613 C150.0320589 302.02274361 137.26983201 279.48944982 134.58415222 258.38768005 C134.53816442 256.29699089 134.52549282 254.20537857 134.54118347 252.11424255 C134.54738708 251.03997009 134.5535907 249.96569763 134.5599823 248.85887146 C134.56795837 248.0433783 134.57593445 247.22788513 134.58415222 246.38768005 C133.48533848 246.3945935 133.48533848 246.3945935 132.36432648 246.40164661 C114.47501484 246.51244775 96.5857724 246.59499221 78.69618988 246.64674091 C70.04462295 246.67243645 61.39328618 246.70741972 52.74186707 246.76487732 C45.19435855 246.81497916 37.64701685 246.8470338 30.09934664 246.85812253 C26.10910141 246.86459641 22.1193331 246.87962688 18.12924194 246.91633034 C-6.09015593 247.13042201 -25.55485551 246.10680189 -44.09944153 228.6650238 C-45.24606262 227.53773865 -45.24606262 227.53773865 -46.41584778 226.38768005 C-47.39231262 225.43055115 -47.39231262 225.43055115 -48.38850403 224.4540863 C-55.80393271 216.61491884 -59.81069048 206.73334071 -62.41584778 196.38768005 C-62.58914989 195.7985958 -62.76245201 195.20951155 -62.94100571 194.60257626 C-63.50949279 191.95087382 -63.54813518 189.50620817 -63.55628967 186.79309082 C-63.56199982 185.65364014 -63.56770996 184.51418945 -63.57359314 183.34020996 C-63.574711 182.09396347 -63.57582886 180.84771698 -63.57698059 179.56370544 C-63.58442795 177.58979324 -63.58442795 177.58979324 -63.59202576 175.57600403 C-63.60513301 171.96597951 -63.61159243 168.35597359 -63.61603642 164.745929 C-63.61897222 162.48576246 -63.62307817 160.22560094 -63.62754059 157.96543694 C-63.64121635 150.88062758 -63.6508804 143.79582977 -63.65474248 136.71100813 C-63.65921175 128.55864196 -63.67670646 120.40644441 -63.70574307 112.25412947 C-63.72745048 105.9379709 -63.7374517 99.62185943 -63.7387836 93.305664 C-63.73982595 89.54096037 -63.74561005 85.77641521 -63.76360321 82.01175117 C-63.78023942 78.461719 -63.78216524 74.91196171 -63.7734642 71.36190414 C-63.77234225 69.45955127 -63.78594235 67.55720688 -63.80021667 65.65490723 C-63.71284741 47.38098482 -58.07263126 31.96000112 -45.16975403 19.0087738 C-32.45769068 6.9097745 -17.70121374 -0.11820323 0 0 Z " fill="#E75B66" transform="translate(126.41584777832031,91.61231994628906)"/>
<path d="M0 0 C6.07640463 5.03563177 11.65377566 10.49864572 17.23388672 16.07275391 C18.24787369 17.08210361 19.26205452 18.09125859 20.27641296 19.10023499 C23.01196024 21.82275691 25.7442499 24.54852421 28.47552252 27.27533388 C30.18321932 28.98008824 31.89149658 30.68425888 33.59994888 32.38825607 C38.94958172 37.72424956 44.29723513 43.06221492 49.64198959 48.40309489 C55.80549554 54.56210719 61.97551113 60.71449965 68.15119541 66.86130011 C72.93282235 71.62133802 77.70869567 76.38709843 82.48020947 81.15727365 C85.32756456 84.00358015 88.17730402 86.84739816 91.03304672 89.68529129 C93.71383252 92.34964115 96.3874199 95.02100642 99.05559731 97.69798088 C100.03621642 98.67937236 101.01941198 99.65819708 102.00533485 100.63426018 C103.34932498 101.96559183 104.68322987 103.30708182 106.01657104 104.64907837 C106.76611494 105.3971557 107.51565884 106.14523304 108.28791618 106.91597939 C110.98766791 110.20223103 111.12294605 113.17917713 111.16113281 117.31176758 C111.17058929 118.15900391 111.18004578 119.00624023 111.18978882 119.87915039 C111.19418976 120.79172607 111.1985907 121.70430176 111.203125 122.64453125 C111.21018463 123.5979541 111.21724426 124.55137695 111.22451782 125.53369141 C111.45298701 165.5137709 111.45298701 165.5137709 108 182 C107.70198486 183.46228027 107.70198486 183.46228027 107.39794922 184.95410156 C97.27732806 233.3359774 75.3608123 277.32428269 41 313 C40.36787598 313.65935547 39.73575195 314.31871094 39.08447266 314.99804688 C29.94002521 324.48630305 20.64265991 333.2262044 10 341 C8.84894983 341.85806152 7.69790823 342.71613451 6.546875 343.57421875 C-1.64275981 349.61177396 -10.14538276 354.99457302 -19 360 C-19.70721191 360.4021875 -20.41442383 360.804375 -21.14306641 361.21875 C-47.08378989 375.82359982 -75.66083263 385.16040837 -105 390 C-106.19625 390.19851563 -107.3925 390.39703125 -108.625 390.6015625 C-109.61455909 390.68618933 -109.61455909 390.68618933 -110.62410927 390.77252579 C-113.1296427 390.9713122 -113.1296427 390.9713122 -116.07051659 391.61758041 C-122.47796958 392.40051741 -126.96725411 392.14598917 -132.22792435 388.13419342 C-137.1517135 383.89109122 -141.63449371 379.21074533 -146.14697266 374.54003906 C-147.91121514 372.76992359 -149.67878386 371.00311804 -151.44940186 369.23937988 C-155.24515605 365.4436523 -159.0168655 361.62629004 -162.76839066 357.78699493 C-168.19706983 352.23148617 -173.66765197 346.7188067 -179.14915244 341.2154679 C-188.04928704 332.27769048 -196.91582675 323.30735241 -205.76123047 314.31542969 C-214.33867191 305.59606594 -222.93031599 296.89113086 -231.54248047 288.20605469 C-232.0733718 287.6706571 -232.60426314 287.1352595 -233.15124209 286.58363774 C-236.34377554 283.36426998 -239.53688739 280.14547639 -242.73019674 276.92687827 C-247.38298567 272.2371129 -252.03495987 267.54653975 -256.68637085 262.85540771 C-257.43728768 262.09812463 -257.43728768 262.09812463 -258.20337455 261.3255429 C-265.12877899 254.34075294 -272.04374518 247.34578172 -278.94972149 240.34178358 C-281.26513544 237.99378249 -283.58148333 235.64670291 -285.89764404 233.29943848 C-289.30847988 229.8426929 -292.71593925 226.38266639 -296.12149048 222.92071533 C-297.6362494 221.38518308 -299.15113421 219.849775 -300.66616821 218.31451416 C-301.67953025 217.28143517 -301.67953025 217.28143517 -302.71336424 216.2274859 C-305.99065787 212.91229089 -309.27089697 209.81804463 -313 207 C-312.505 206.01 -312.505 206.01 -312 205 C-311.46632813 205.38671875 -310.93265625 205.7734375 -310.3828125 206.171875 C-297.84873252 214.93271983 -285.84736823 217.2963016 -270.78125 217.31884766 C-269.35151103 217.32815859 -267.92177745 217.33832897 -266.49205017 217.34928894 C-262.63108815 217.37647185 -258.77016238 217.3917034 -254.9091301 217.40471697 C-250.86654274 217.42039903 -246.82402884 217.44717295 -242.78149414 217.4727478 C-235.13548097 217.51944603 -227.48945384 217.55623335 -219.84337139 217.58942068 C-211.1347208 217.62770552 -202.42614415 217.67709893 -193.717556 217.72740483 C-175.81175819 217.8305914 -157.9059152 217.91989478 -140 218 C-139.81497925 219.61503418 -139.81497925 219.61503418 -139.6262207 221.26269531 C-139.45550061 222.70120272 -139.28450616 224.13967759 -139.11328125 225.578125 C-139.03307739 226.28469238 -138.95287354 226.99125977 -138.87023926 227.71923828 C-138.06071161 234.43503331 -136.31502788 240.64375621 -134 247 C-133.64035156 247.99515625 -133.28070313 248.9903125 -132.91015625 250.015625 C-122.58405554 276.57838912 -102.69023126 294.63200338 -77 306 C-71.10985543 308.31557661 -65.24302502 309.67120451 -59 310.625 C-58.2575 310.74617188 -57.515 310.86734375 -56.75 310.9921875 C-51.50239581 311.8303465 -46.29890033 312.4112333 -41 313 C-41 299.47 -41 285.94 -41 272 C-21.2 272 -1.4 272 19 272 C19 253.85 19 235.7 19 217 C8.77 217 -1.46 217 -12 217 C-12 224.92 -12 232.84 -12 241 C-21.57 241 -31.14 241 -41 241 C-41 234.07 -41 227.14 -41 220 C-40.34 220 -39.68 220 -39 220 C-37.52133394 218.39129666 -37.52133394 218.39129666 -36.015625 216.2578125 C-35.11674561 215.04134033 -35.11674561 215.04134033 -34.19970703 213.80029297 C-33.55630371 212.91744629 -32.91290039 212.03459961 -32.25 211.125 C-30.89991759 209.29578167 -29.54831865 207.4676818 -28.1953125 205.640625 C-27.15745605 204.23780273 -27.15745605 204.23780273 -26.09863281 202.80664062 C-22.25090159 197.66081488 -18.27888801 192.61216043 -14.30566406 187.56298828 C-13.75362305 186.85899902 -13.20158203 186.15500977 -12.6328125 185.4296875 C-12.14699707 184.81335449 -11.66118164 184.19702148 -11.16064453 183.56201172 C-9.92277444 181.99095675 -9.92277444 181.99095675 -9 180 C-13.62 180 -18.24 180 -23 180 C-23 168.45 -23 156.9 -23 145 C-28.94 145 -34.88 145 -41 145 C-41 134.77 -41 124.54 -41 114 C-31.48569991 113.46648785 -23.55523297 113.95778605 -14.375 116.5625 C-13.14390503 116.9030542 -13.14390503 116.9030542 -11.88793945 117.25048828 C-6.54429484 118.86767837 -1.62965243 121.09421974 3.33740234 123.62475586 C4.30246956 124.11204792 4.30246956 124.11204792 5.28703308 124.60918427 C6.85932728 125.40354464 8.42984823 126.2014132 10 127 C9.96179902 114.09012529 9.9022289 101.18053733 9.81609726 88.27088833 C9.77674988 82.27506423 9.74449914 76.27938421 9.72900391 70.28344727 C9.71375317 64.48662064 9.67915945 58.69019046 9.63169098 52.89354134 C9.61696355 50.69264249 9.608964 48.49168702 9.60811615 46.29073906 C9.5964133 31.13088265 9.3189035 16.86573596 0.953125 3.63671875 C0 2 0 2 0 0 Z " fill="#3D3D3D" transform="translate(401,120)"/>
<path d="M0 0 C15.53458557 -0.09379239 31.06914972 -0.16414913 46.60395241 -0.20724869 C53.81842182 -0.22780004 61.03271444 -0.25577679 68.24707031 -0.30175781 C74.54130603 -0.341855 80.83541359 -0.36748666 87.1297735 -0.37635398 C90.45711276 -0.38153057 93.78379761 -0.3956958 97.11107254 -0.42292023 C120.7351949 -0.60842275 139.2493969 1.87959583 157 19 C172.56496584 36.69185558 174.45923412 54.66751813 174.29296875 77.265625 C174.28736477 79.51291621 174.28309846 81.76021112 174.28010559 84.00750732 C174.26872003 89.88635602 174.23930759 95.76497792 174.20599365 101.64373779 C174.17515645 107.65699192 174.16157122 113.67028313 174.14648438 119.68359375 C174.11443136 131.45582812 174.06331198 143.22789511 174 155 C171.24108445 153.9017112 168.49416568 152.78669637 165.7578125 151.6328125 C151.57280533 145.74527189 138.35440229 142.54351867 123 142 C123 152.23 123 162.46 123 173 C128.94 173 134.88 173 141 173 C141 184.55 141 196.1 141 208 C145.62 208 150.24 208 155 208 C153.6002212 210.79955759 152.4691817 212.87143547 150.63671875 215.29296875 C150.16814453 215.91526367 149.69957031 216.53755859 149.21679688 217.17871094 C148.45979492 218.17306152 148.45979492 218.17306152 147.6875 219.1875 C147.16349609 219.88004883 146.63949219 220.57259766 146.09960938 221.28613281 C144.98253676 222.76080086 143.86383634 224.234237 142.74365234 225.70654297 C140.97639476 228.03104839 139.21640351 230.36092886 137.45703125 232.69140625 C136.30507451 234.21123092 135.15274103 235.73077011 134 237.25 C133.46076904 237.96438232 132.92153809 238.67876465 132.3659668 239.41479492 C131.85332275 240.08744385 131.34067871 240.76009277 130.8125 241.453125 C130.33071289 242.08702148 129.84892578 242.72091797 129.35253906 243.37402344 C128 245 128 245 125.671875 246.84375 C122.84102297 250.49475542 123.32025456 254.76661195 123.25 259.25 C123.1675 262.4675 123.085 265.685 123 269 C132.57 269 142.14 269 152 269 C152 261.08 152 253.16 152 245 C162.23 245 172.46 245 183 245 C183 263.15 183 281.3 183 300 C163.2 300 143.4 300 123 300 C123 313.53 123 327.06 123 341 C98.68788436 341 76.35031005 333.09620622 58 317 C56.88238281 316.09701172 56.88238281 316.09701172 55.7421875 315.17578125 C39.07242656 301.32303566 27.35048448 279.32126489 24 258 C24 254.04 24 250.08 24 246 C16.08 246 8.16 246 0 246 C0 220.59 0 195.18 0 169 C8.25 164.38 16.5 159.76 25 155 C41.97643776 145.51538138 41.97643776 145.51538138 58.66259766 135.5378418 C62.79149659 133 62.79149659 133 65 133 C67.45445431 128.39789818 68.09180677 123.07728322 67 118 C62.94145118 111.34723401 56.33919257 108.50592134 49.625 104.9375 C48.41711346 104.28332801 47.21000997 103.62770824 46.00366211 102.97070312 C43.54008135 101.6296091 41.07389259 100.29351015 38.60595703 98.96044922 C33.2196523 96.04214036 27.89073391 93.02267071 22.5625 90 C21.67191895 89.49718506 20.78133789 88.99437012 19.86376953 88.47631836 C18.1835551 87.5258734 16.51289208 86.5582353 14.8547821 85.56973267 C12.02038384 83.93038075 12.02038384 83.93038075 8.90312195 82.79197693 C5.30667282 81.21592948 2.80411278 79.76782087 0 77 C-1.70639293 71.15637572 -1.40329003 65.50884098 -1.171875 59.47265625 C-1.14947213 57.7563624 -1.13240062 56.0399914 -1.12042236 54.32359314 C-1.07476202 49.82190259 -0.95705753 45.32491458 -0.82397461 40.82507324 C-0.70085347 36.22712841 -0.64633624 31.62841758 -0.5859375 27.02929688 C-0.457526 18.01747317 -0.25293948 9.00912864 0 0 Z " fill="#CB2E4C" transform="translate(237,92)"/>
<path d="M0 0 C0 10.23 0 20.46 0 31 C5.94 31 11.88 31 18 31 C18 42.55 18 54.1 18 66 C22.62 66 27.24 66 32 66 C30.6002212 68.79955759 29.4691817 70.87143547 27.63671875 73.29296875 C27.16814453 73.91526367 26.69957031 74.53755859 26.21679688 75.17871094 C25.45979492 76.17306152 25.45979492 76.17306152 24.6875 77.1875 C23.90149414 78.22632324 23.90149414 78.22632324 23.09960938 79.28613281 C21.98253676 80.76080086 20.86383634 82.234237 19.74365234 83.70654297 C17.97639476 86.03104839 16.21640351 88.36092886 14.45703125 90.69140625 C13.30507451 92.21123092 12.15274103 93.73077011 11 95.25 C10.19115356 96.32157349 10.19115356 96.32157349 9.3659668 97.41479492 C8.85332275 98.08744385 8.34067871 98.76009277 7.8125 99.453125 C7.33071289 100.08702148 6.84892578 100.72091797 6.35253906 101.37402344 C5 103 5 103 2.671875 104.84375 C-0.15897703 108.49475542 0.32025456 112.76661195 0.25 117.25 C0.1675 120.4675 0.085 123.685 0 127 C9.57 127 19.14 127 29 127 C29 119.08 29 111.16 29 103 C39.23 103 49.46 103 60 103 C60 121.15 60 139.3 60 158 C40.2 158 20.4 158 0 158 C0 171.53 0 185.06 0 199 C-24.31211564 199 -46.64968995 191.09620622 -65 175 C-66.11761719 174.09701172 -66.11761719 174.09701172 -67.2578125 173.17578125 C-85.50764441 158.00998017 -97.31875294 133.81145656 -99.625 110.375 C-99.76376328 108.25085435 -99.88811942 106.12573111 -100 104 C-100.07734375 102.90171875 -100.1546875 101.8034375 -100.234375 100.671875 C-101.20610506 76.16268341 -91.56317382 51.89390592 -75.4375 33.6875 C-73.96560652 32.11814668 -72.48704267 30.55500623 -71 29 C-70.44957031 28.38640625 -69.89914062 27.7728125 -69.33203125 27.140625 C-51.7499728 8.21277936 -25.31082744 -1.16104713 0 0 Z " fill="#6EEC6F" transform="translate(360,234)"/>
<path d="M0 0 C24.45935277 -1.37155249 46.21309772 7.71523748 65 23 C66.051875 23.78375 67.10375 24.5675 68.1875 25.375 C72.62297853 29.51477996 76.28751542 34.21284884 80 39 C80.61101562 39.77214844 81.22203125 40.54429687 81.8515625 41.33984375 C97.69901539 62.50596234 102.61130303 88.57409885 99.5234375 114.48046875 C98.14796672 123.84035247 94.97528912 132.47674838 91 141 C90.70996094 141.62793457 90.41992188 142.25586914 90.12109375 142.90283203 C78.6582699 167.21171011 57.70765598 185.00501864 32.47436523 194.09448242 C21.55039227 197.83996415 11.56864471 199 0 199 C0 185.47 0 171.94 0 158 C19.8 158 39.6 158 60 158 C60 139.85 60 121.7 60 103 C49.77 103 39.54 103 29 103 C29 110.92 29 118.84 29 127 C19.43 127 9.86 127 0 127 C0 120.07 0 113.14 0 106 C0.66 106 1.32 106 2 106 C3.47866606 104.39129666 3.47866606 104.39129666 4.984375 102.2578125 C5.58362793 101.44683105 6.18288086 100.63584961 6.80029297 99.80029297 C7.44369629 98.91744629 8.08709961 98.03459961 8.75 97.125 C10.10008241 95.29578167 11.45168135 93.4676818 12.8046875 91.640625 C13.4965918 90.70541016 14.18849609 89.77019531 14.90136719 88.80664062 C18.74909841 83.66081488 22.72111199 78.61216043 26.69433594 73.56298828 C27.24637695 72.85899902 27.79841797 72.15500977 28.3671875 71.4296875 C28.85300293 70.81335449 29.33881836 70.19702148 29.83935547 69.56201172 C31.07722556 67.99095675 31.07722556 67.99095675 32 66 C27.38 66 22.76 66 18 66 C18 54.45 18 42.9 18 31 C12.06 31 6.12 31 0 31 C0 20.77 0 10.54 0 0 Z " fill="#37BE4E" transform="translate(360,234)"/>
<path d="M0 0 C2.83676893 1.411862 5.54015369 2.94800766 8.25292969 4.58496094 C9.16429687 5.10703125 10.07566406 5.62910156 11.01464844 6.16699219 C14.58799771 8.22560735 18.11979923 10.34898463 21.64648438 12.48632812 C27.71532181 16.15925658 33.87789925 19.60527723 40.12792969 22.95996094 C41.98990885 23.9625651 43.85188802 24.96516927 45.71386719 25.96777344 C46.65415771 26.4736499 47.59444824 26.97952637 48.56323242 27.50073242 C57.61414853 32.37835011 66.62875475 37.31316295 75.56542969 42.39746094 C76.39800293 42.86877441 77.23057617 43.34008789 78.08837891 43.82568359 C95.39795869 53.73740773 95.39795869 53.73740773 98.12792969 58.95996094 C98.75760708 63.38234634 98.79368956 67.22843732 97.17871094 71.42871094 C94.08223125 75.25065158 90.16369467 77.14129208 85.87792969 79.45996094 C83.96124963 80.52504102 82.04458344 81.59014603 80.12792969 82.65527344 C79.13535156 83.20086914 78.14277344 83.74646484 77.12011719 84.30859375 C73.29654387 86.41879691 69.49924134 88.57357806 65.70214844 90.73095703 C53.65489898 97.57314487 41.56401154 104.33865987 29.46777344 111.09375 C27.13631468 112.39650371 24.80551645 113.70037959 22.47558594 115.00585938 C19.37803031 116.74136461 16.2787585 118.47376886 13.17834473 120.2041626 C11.41662586 121.18834339 9.65653596 122.17543829 7.89648438 123.16259766 C6.82301758 123.76088379 5.74955078 124.35916992 4.64355469 124.97558594 C3.22478027 125.76884277 3.22478027 125.76884277 1.77734375 126.578125 C-4.2487885 129.72113169 -8.25079729 130.5509382 -14.87207031 128.95996094 C-19.93935241 126.47412444 -22.82834034 123.18402249 -24.87207031 117.95996094 C-25.43508756 114.42701872 -25.4294963 110.95022701 -25.40551758 107.37817383 C-25.41413315 106.33661636 -25.42274872 105.2950589 -25.43162537 104.22193909 C-25.4542578 100.79190959 -25.44755094 97.36269894 -25.43847656 93.93261719 C-25.44371342 91.54039773 -25.44999012 89.14818033 -25.45726013 86.75596619 C-25.46765944 81.74679841 -25.46310943 76.7379148 -25.44848633 71.72875977 C-25.43130202 65.31840131 -25.45479312 58.90893949 -25.48997593 52.49868107 C-25.51196578 47.55974926 -25.51050444 42.62103145 -25.50221062 37.68206596 C-25.50139193 35.31903538 -25.50823937 32.95598896 -25.52298164 30.59300423 C-25.5404553 27.28516098 -25.52585949 23.97892212 -25.50317383 20.67114258 C-25.51486603 19.70102234 -25.52655823 18.7309021 -25.53860474 17.73138428 C-25.44888072 11.2817165 -24.04940479 6.94453111 -19.87207031 1.95996094 C-14.13977707 -2.61927828 -6.71816786 -2.43279455 0 0 Z " fill="#FEFEFE" transform="translate(206.8720703125,151.0400390625)"/>
<path d="M0 0 C9.9 0 19.8 0 30 0 C30 7.92 30 15.84 30 24 C48.48 24 66.96 24 86 24 C86 16.08 86 8.16 86 0 C96.23 0 106.46 0 117 0 C117 18.15 117 36.3 117 55 C78.39 55 39.78 55 0 55 C0 36.85 0 18.7 0 0 Z " fill="#D4D9D4" transform="translate(303,337)"/>
<path d="M0 0 C3.78338738 1.51335495 7.05726572 3.049371 10.5859375 5.01953125 C12.21329834 5.92554077 12.21329834 5.92554077 13.87353516 6.84985352 C15.04079064 7.50388962 16.20794327 8.15810931 17.375 8.8125 C18.57983089 9.48574691 19.78474731 10.15884076 20.98974609 10.83178711 C23.45462991 12.20933068 25.91823297 13.58912825 28.38085938 14.97070312 C31.77717822 16.87606563 35.17763111 18.77397305 38.578125 20.671875 C40.59402767 21.801588 42.60966641 22.93177213 44.625 24.0625 C45.54071777 24.57337158 46.45643555 25.08424316 47.39990234 25.6105957 C65.19759643 35.63888013 65.19759643 35.63888013 68 41 C68.62967739 45.4223854 68.66575987 49.26847639 67.05078125 53.46875 C63.95428396 57.29071237 60.03575292 59.18124191 55.75 61.5 C54.82268066 62.01554443 53.89536133 62.53108887 52.93994141 63.06225586 C50.96877508 64.15806329 48.99489792 65.24900639 47.01855469 66.33544922 C42.11553504 69.03916872 37.24719072 71.80374709 32.375 74.5625 C31.4250415 75.09770264 30.47508301 75.63290527 29.49633789 76.18432617 C24.77642362 78.84590166 20.07229282 81.53055385 15.39453125 84.265625 C14.07606201 85.03604126 14.07606201 85.03604126 12.73095703 85.82202148 C11.07205935 86.79414381 9.41536859 87.77004497 7.76123047 88.75024414 C7.0292041 89.17942139 6.29717773 89.60859863 5.54296875 90.05078125 C4.90383545 90.42887939 4.26470215 90.80697754 3.60620117 91.1965332 C2 92 2 92 0 92 C0 61.64 0 31.28 0 0 Z " fill="#D8D7D7" transform="translate(237,169)"/>
<path d="M0 0 C9.9 0 19.8 0 30 0 C30 8.25 30 16.5 30 25 C39.24 25 48.48 25 58 25 C58 34.57 58 44.14 58 54 C38.86 54 19.72 54 0 54 C0 36.18 0 18.36 0 0 Z " fill="#FEFEFE" transform="translate(303,337)"/>
<path d="M0 0 C10.89 0 21.78 0 33 0 C33 11.55 33 23.1 33 35 C37.62 35 42.24 35 47 35 C45.6002212 37.79955759 44.4691817 39.87143547 42.63671875 42.29296875 C42.16814453 42.91526367 41.69957031 43.53755859 41.21679688 44.17871094 C40.71212891 44.84161133 40.20746094 45.50451172 39.6875 46.1875 C38.90149414 47.22632324 38.90149414 47.22632324 38.09960938 48.28613281 C36.98253676 49.76080086 35.86383634 51.234237 34.74365234 52.70654297 C32.97639476 55.03104839 31.21640351 57.36092886 29.45703125 59.69140625 C28.30507451 61.21123092 27.15274103 62.73077011 26 64.25 C25.19115356 65.32157349 25.19115356 65.32157349 24.3659668 66.41479492 C21.75645571 69.83877858 19.15934612 73.05330218 16 76 C15.64921387 75.51869629 15.29842773 75.03739258 14.93701172 74.54150391 C7.60193964 64.49290662 0.18290613 54.53279431 -7.55517578 44.78955078 C-8.10931152 44.08685059 -8.66344727 43.38415039 -9.234375 42.66015625 C-9.72131836 42.04793213 -10.20826172 41.43570801 -10.70996094 40.80493164 C-12 39 -12 39 -14 35 C-9.38 35 -4.76 35 0 35 C0 23.45 0 11.9 0 0 Z " fill="#D7D8D7" transform="translate(345,265)"/>
<path d="M0 0 C5.28 0 10.56 0 16 0 C16 24.42 16 48.84 16 74 C12.48035894 70.48035894 9.59013635 67.34419718 6.625 63.4375 C6.21652832 62.9002832 5.80805664 62.36306641 5.38720703 61.80957031 C3.9204364 59.87631853 2.46047786 57.93800986 1 56 C0.36513672 55.16162598 -0.26972656 54.32325195 -0.92382812 53.45947266 C-2.99412163 50.72540969 -5.06026977 47.98826619 -7.125 45.25 C-7.80095215 44.35595459 -8.4769043 43.46190918 -9.17333984 42.54077148 C-9.79934082 41.70747314 -10.4253418 40.8741748 -11.0703125 40.015625 C-11.63508301 39.26571289 -12.19985352 38.51580078 -12.78173828 37.74316406 C-14 36 -14 36 -14 35 C-9.38 35 -4.76 35 0 35 C0 23.45 0 11.9 0 0 Z " fill="#FDFEFD" transform="translate(345,265)"/>
</svg>
